<?xml version="1.0" standalone="no"?>
<!DOCTYPE svg PUBLIC "-//W3C//DTD SVG 20010904//EN"
 "http://www.w3.org/TR/2001/REC-SVG-20010904/DTD/svg10.dtd">
<svg version="1.0" xmlns="http://www.w3.org/2000/svg"
 width="1115.000000pt" height="1115.000000pt" viewBox="0 0 1115.000000 1115.000000"
 preserveAspectRatio="xMidYMid meet">
<metadata>
Created by potrace 1.14, written by Peter Selinger 2001-2017
</metadata>
<g transform="translate(0.000000,1115.000000) scale(0.100000,-0.100000)"
fill="#000000" stroke="none">
<path d="M5565 10685 c-246 -46 -452 -191 -584 -410 -19 -31 -50 -102 -70
-158 l-36 -102 -3 -717 -3 -717 -32 -5 c-18 -3 -81 -10 -142 -16 -254 -26
-583 -89 -880 -171 -370 -101 -708 -231 -1070 -409 -273 -135 -401 -208 -447
-253 -86 -86 -92 -233 -13 -324 l32 -37 -122 -71 c-147 -86 -286 -181 -415
-283 -117 -93 -372 -347 -464 -462 -188 -235 -386 -586 -489 -865 -168 -454
-247 -967 -234 -1510 8 -324 50 -595 137 -884 385 -1269 1518 -2220 3130
-2626 1233 -311 2676 -264 3846 124 1391 460 2356 1353 2704 2502 87 289 129
555 137 884 20 828 -171 1563 -559 2145 -132 199 -207 290 -382 466 -210 210
-410 363 -668 514 -60 34 -108 64 -108 67 0 3 13 20 29 39 49 55 64 143 39
228 -21 72 -93 130 -293 238 -670 362 -1427 605 -2125 683 -80 9 -160 18 -177
21 l-33 5 0 369 0 369 33 5 c17 3 109 7 202 9 145 3 177 6 215 23 52 24 102
72 127 123 25 51 24 164 -2 212 -48 87 -643 934 -672 957 -62 46 -93 51 -323
51 -134 -1 -241 -6 -285 -14z m462 -673 c73 -106 133 -197 133 -203 0 -5 -8
-9 -17 -9 -40 -1 -157 -51 -207 -88 -66 -50 -110 -116 -139 -207 -22 -69 -22
-76 -19 -644 3 -556 3 -575 23 -622 26 -60 95 -125 146 -137 21 -5 121 -15
223 -21 473 -29 997 -144 1495 -328 157 -58 445 -183 445 -193 0 -9 -165 -65
-305 -104 -135 -37 -343 -74 -495 -86 -74 -6 -156 -15 -182 -20 -89 -18 -162
-86 -187 -176 -17 -61 -13 -96 18 -183 78 -210 82 -475 9 -668 l-20 -53 -126
118 c-412 384 -730 626 -1008 765 -213 106 -276 105 -499 -6 -280 -140 -644
-419 -1036 -794 l-85 -82 -22 62 c-49 138 -65 321 -41 467 5 36 26 112 45 169
36 111 41 164 20 224 -39 109 -115 153 -288 167 -156 13 -196 18 -328 41 -176
31 -419 96 -536 145 l-36 15 63 31 c580 276 1320 466 1939 497 147 8 174 12
216 33 55 28 108 90 124 146 6 24 10 310 10 814 0 813 1 834 45 933 62 141
172 196 385 192 l104 -2 133 -193z m-2993 -2981 l148 -48 -103 -55 c-893 -472
-1391 -1279 -1469 -2378 -41 -590 44 -1068 275 -1535 308 -625 838 -1124 1580
-1490 619 -305 1295 -482 2089 -545 71 -5 159 -11 195 -11 l66 -2 -65 -9 c-72
-10 -458 -3 -670 13 -1020 74 -1911 355 -2610 824 -675 453 -1114 1038 -1295
1727 -107 411 -122 879 -44 1372 163 1022 765 1786 1704 2165 28 11 50 20 50
20 0 0 67 -21 149 -48z m6286 -4684 c0 -1 -42 -43 -92 -92 l-93 -90 90 93 c83
85 95 97 95 89z m-3397 -1384 c-13 -2 -35 -2 -50 0 -16 2 -5 4 22 4 28 0 40
-2 28 -4z"/>
</g>
</svg>
